<?xml version="1.0" encoding="iso-8859-1"?><svg xmlns="http://www.w3.org/2000/svg" viewBox="0 0 512 512" width="256" height="256"><path d="M506.849 206.373L348.547 346.465 506.88 487.233c3.162-6.152 5.12-13.021 5.12-20.402v-240c0-7.405-1.968-14.291-5.151-20.458zM325.999 366.547l-40.365 35.949c-16.891 14.78-42.363 14.766-59.268 0L186 366.547 26.926 507.977c5.543 2.444 11.638 3.854 18.074 3.854h422c6.436 0 12.532-1.41 18.074-3.854l-159.075-141.43zM5.151 206.373C1.968 212.54 0 219.427 0 226.832v240c0 7.381 1.957 14.249 5.12 20.402l158.333-140.768L5.151 206.373z"/><path d="M467 181.831H331v75c0 24.814-20.186 45-45 45h-60c-24.814 0-45-20.186-45-45v-75H45c-6.411 0-12.486 1.392-18.01 3.818l219.122 194.259c5.654 4.922 14.121 4.922 19.775 0L485.01 185.649c-5.524-2.426-11.6-3.818-18.01-3.818z"/><path d="M357.997 127.838l-90-122c-5.654-7.559-18.34-7.559-23.994 0l-90 122c-7.392 9.833-.355 23.994 11.997 23.994h45v105c0 8.291 6.709 15 15 15h60c8.291 0 15-6.709 15-15v-105h45c12.352 0 19.389-14.161 11.997-23.994z"/></svg>