<?xml version="1.0" encoding="UTF-8"?><svg xmlns="http://www.w3.org/2000/svg" xmlns:xlink="http://www.w3.org/1999/xlink"><symbol viewBox="0 0 512 512" id="btn-icon" xmlns="http://www.w3.org/2000/svg"><path d="M498.347 117.973c-18.773-18.773-51.2-18.773-68.267 0L256 290.346 83.627 117.973c-8.534-8.534-22.186-13.653-34.133-13.653-13.653 0-25.6 5.12-34.133 13.653C5.12 128.213 0 140.159 0 153.813s5.12 25.6 13.653 34.133l208.213 206.507c8.534 8.534 22.187 13.653 34.133 13.653 11.947 0 25.6-5.12 34.133-13.653L498.347 186.24C506.88 177.706 512 164.053 512 152.106s-5.12-25.6-13.653-34.133zm-25.6 44.373L266.24 370.56c-5.12 5.12-15.36 5.12-20.48 0L39.253 164.053c-3.413-3.413-5.12-6.827-5.12-10.24s1.706-6.827 5.12-10.24 6.827-5.12 10.24-5.12 6.827 1.707 10.24 5.12l184.32 184.32c3.413 3.413 6.827 5.12 11.946 5.12 5.12 0 8.534-1.707 11.947-5.12l184.32-186.027c5.12-5.12 15.36-5.12 20.48 0 3.413 3.413 5.12 6.827 5.12 10.24.001 5.12-1.706 8.533-5.119 10.24z"/></symbol><symbol viewBox="0 0 512 512" id="dribbble" xmlns="http://www.w3.org/2000/svg"><path d="M256 0C114.848 0 0 114.848 0 256s114.848 256 256 256 256-114.848 256-256S397.152 0 256 0zm0 480C132.48 480 32 379.488 32 256 32 132.48 132.48 32 256 32c123.488 0 224 100.48 224 224 0 123.488-100.512 224-224 224z"/><path d="M256 64c-13.44 0-26.56 1.408-39.232 4.032 23.296 33.024 44.448 67.392 63.072 103.008 35.232-16.416 68.384-37.6 98.656-62.88C345.248 80.576 302.56 64 256 64zM401.312 130.752c-32.928 27.744-69.152 50.752-107.616 68.736a877.744 877.744 0 0123.456 53.344c42.496-8.736 86.72-9.536 130.56-2.272-1.28-45.76-18.496-87.488-46.4-119.808zM184.64 77.856c-57.632 23.104-101.344 73.28-115.552 134.88 62.144 2.656 123.648-7.712 180.896-29.568-19.232-36.512-41.024-71.712-65.344-105.312zM264.32 212.128c-55.424 21.6-114.624 33.376-174.816 33.376-8.288 0-16.608-.512-24.928-.96C64.352 248.352 64 252.128 64 256c0 47.136 17.056 90.272 45.248 123.68 46.112-57.248 108.096-98.272 176.704-118.88-6.688-16.448-13.92-32.64-21.632-48.672zM328.896 283.136c15.264 42.56 27.232 86.304 36 130.912 43.264-29.856 73.472-76.992 81.056-131.456-39.232-6.944-78.88-6.624-117.056.544zM297.472 290.56c-64.512 18.848-122.784 57.568-165.504 111.872C165.44 430.816 208.672 448 256 448c28.416 0 55.328-6.336 79.584-17.44-8.8-47.808-21.6-94.592-38.112-140z"/></symbol><symbol viewBox="0 0 512 512" id="linkedin" xmlns="http://www.w3.org/2000/svg"><path d="M0 160h114.496v352H0zM426.368 164.128c-1.216-.384-2.368-.8-3.648-1.152a74.218 74.218 0 00-4.64-.896c-6.08-1.216-12.736-2.08-20.544-2.08-66.752 0-109.088 48.544-123.04 67.296V160H160v352h114.496V320s86.528-120.512 123.04-32v224H512V274.464c0-53.184-36.448-97.504-85.632-110.336z"/><circle cx="56" cy="56" r="56"/></symbol><symbol viewBox="0 0 512 512" id="send" xmlns="http://www.w3.org/2000/svg"><path d="M506.849 206.373L348.547 346.465 506.88 487.233c3.162-6.152 5.12-13.021 5.12-20.402v-240c0-7.405-1.968-14.291-5.151-20.458zM325.999 366.547l-40.365 35.949c-16.891 14.78-42.363 14.766-59.268 0L186 366.547 26.926 507.977c5.543 2.444 11.638 3.854 18.074 3.854h422c6.436 0 12.532-1.41 18.074-3.854l-159.075-141.43zM5.151 206.373C1.968 212.54 0 219.427 0 226.832v240c0 7.381 1.957 14.249 5.12 20.402l158.333-140.768L5.151 206.373z"/><path d="M467 181.831H331v75c0 24.814-20.186 45-45 45h-60c-24.814 0-45-20.186-45-45v-75H45c-6.411 0-12.486 1.392-18.01 3.818l219.122 194.259c5.654 4.922 14.121 4.922 19.775 0L485.01 185.649c-5.524-2.426-11.6-3.818-18.01-3.818z"/><path d="M357.997 127.838l-90-122c-5.654-7.559-18.34-7.559-23.994 0l-90 122c-7.392 9.833-.355 23.994 11.997 23.994h45v105c0 8.291 6.709 15 15 15h60c8.291 0 15-6.709 15-15v-105h45c12.352 0 19.389-14.161 11.997-23.994z"/></symbol><symbol viewBox="0 0 512 512" id="skype" xmlns="http://www.w3.org/2000/svg"><path d="M497.28 310.336c3.712-16.672 5.632-33.952 5.632-51.68 0-132.96-109.312-240.768-244.192-240.768-14.208 0-28.16 1.216-41.76 3.52C195.136 7.872 169.312 0 141.632 0 63.392 0 0 62.496 0 139.648c0 25.76 7.104 49.856 19.456 70.624a238.609 238.609 0 00-4.96 48.384c0 132.992 109.344 240.8 244.192 240.8 15.296 0 30.24-1.408 44.736-4.032C323.392 505.984 346.176 512 370.4 512c78.208 0 141.6-62.528 141.6-139.616 0-22.304-5.312-43.328-14.72-62.048zm-113.312 63.392c-11.296 15.776-27.968 28.256-49.632 37.088-21.408 8.8-47.04 13.28-76.288 13.28-35.072 0-64.48-6.08-87.456-18.112-16.416-8.736-29.92-20.544-40.192-35.2-10.4-14.72-15.616-29.344-15.616-43.488 0-8.8 3.424-16.448 10.176-22.688 6.688-6.24 15.264-9.344 25.504-9.344 8.384 0 15.616 2.464 21.504 7.36 5.6 4.704 10.432 11.68 14.304 20.608 4.32 9.792 9.024 18.048 13.984 24.48 4.832 6.304 11.712 11.552 20.512 15.68 8.864 4.096 20.8 6.24 35.456 6.24 20.192 0 36.768-4.256 49.184-12.64 12.192-8.16 18.08-18.016 18.08-30.048 0-9.472-3.104-16.96-9.408-22.816-6.656-6.144-15.424-10.912-26.048-14.208-11.104-3.392-26.176-7.104-44.8-10.944-25.376-5.344-46.912-11.68-64-18.88-17.504-7.36-31.648-17.536-41.952-30.272-10.496-12.96-15.808-29.184-15.808-48.256 0-18.176 5.568-34.56 16.576-48.704 10.912-14.048 26.848-25.024 47.424-32.48 20.256-7.392 44.352-11.136 71.648-11.136 21.792 0 40.96 2.496 56.992 7.424 16.096 4.928 29.664 11.584 40.32 19.808 10.752 8.32 18.752 17.12 23.744 26.336 5.056 9.28 7.648 18.528 7.648 27.456 0 8.608-3.36 16.448-10.016 23.232-6.72 6.88-15.168 10.336-25.088 10.336-9.024 0-16.128-2.208-21.024-6.464-4.576-4-9.344-10.24-14.592-19.136-6.08-11.392-13.472-20.384-21.92-26.752-8.224-6.176-21.92-9.248-40.8-9.248-17.472 0-31.744 3.456-42.304 10.304-10.176 6.56-15.136 14.112-15.136 23.072 0 5.472 1.6 10.048 4.896 13.984 3.456 4.224 8.352 7.84 14.56 10.912 6.4 3.168 13.024 5.728 19.648 7.52 6.784 1.856 18.144 4.64 33.792 8.192 19.776 4.16 37.92 8.864 53.984 13.952 16.288 5.088 30.304 11.392 41.824 18.784 11.68 7.52 20.928 17.12 27.52 28.64 6.592 11.616 9.92 25.856 9.92 42.432-.032 19.808-5.792 37.888-17.12 53.696z"/></symbol><symbol viewBox="0 0 512 512" id="twitter" xmlns="http://www.w3.org/2000/svg"><path d="M512 97.248c-19.04 8.352-39.328 13.888-60.48 16.576 21.76-12.992 38.368-33.408 46.176-58.016-20.288 12.096-42.688 20.64-66.56 25.408C411.872 60.704 384.416 48 354.464 48c-58.112 0-104.896 47.168-104.896 104.992 0 8.32.704 16.32 2.432 23.936-87.264-4.256-164.48-46.08-216.352-109.792-9.056 15.712-14.368 33.696-14.368 53.056 0 36.352 18.72 68.576 46.624 87.232-16.864-.32-33.408-5.216-47.424-12.928v1.152c0 51.008 36.384 93.376 84.096 103.136-8.544 2.336-17.856 3.456-27.52 3.456-6.72 0-13.504-.384-19.872-1.792 13.6 41.568 52.192 72.128 98.08 73.12-35.712 27.936-81.056 44.768-130.144 44.768-8.608 0-16.864-.384-25.12-1.44C46.496 446.88 101.6 464 161.024 464c193.152 0 298.752-160 298.752-298.688 0-4.64-.16-9.12-.384-13.568 20.832-14.784 38.336-33.248 52.608-54.496z"/></symbol></svg>